#

v  0 1.431268 -0
v  -0.195932 1.327803 -0.195932
v  -0.2676244 1.327803 -0.07169238
v  -0.2676244 1.327803 0.07169238
v  -0.195932 1.327803 0.195932
v  -0.3670161 1.000435 -0.3670161
v  -0.5014393 1.000435 -0.1344232
v  -0.5014393 1.000435 0.1344232
v  -0.3670161 1.000435 0.3670161
v  -0.4358571 0.7106779 -0.4358571
v  -0.5953997 0.7106779 -0.1595427
v  -0.5953997 0.7106779 0.1595427
v  -0.4358571 0.7106779 0.4358571
v  -0.4575821 0.5241148 -0.4575821
v  -0.625 0.5241148 -0.167418
v  -0.625 0.5241148 0.167418
v  -0.4575821 0.5241148 0.4575821
v  -0.4320552 0.2338149 -0.4320552
v  -0.2608353 0 -0.2608353
v  -0.3562894 0 -0.09545405
v  -0.5901043 0.2338149 -0.1581849
v  -0.3562894 0 0.09545405
v  -0.5901043 0.2338149 0.1581849
v  -0.2608353 0 0.2608353
v  -0.4320552 0.2338149 0.4320552
v  0 0 -0
v  -0.07169238 1.327803 0.2676244
v  0.07169238 1.327803 0.2676244
v  0.195932 1.327803 0.195932
v  -0.1344232 1.000435 0.5014393
v  0.1344232 1.000435 0.5014393
v  0.3670161 1.000435 0.3670161
v  -0.1595427 0.7106779 0.5953997
v  0.1595427 0.7106779 0.5953997
v  0.4358571 0.7106779 0.4358571
v  -0.167418 0.5241148 0.625
v  0.167418 0.5241148 0.625
v  0.4575821 0.5241148 0.4575821
v  -0.09545405 0 0.3562894
v  -0.1581849 0.2338149 0.5901043
v  0.09545405 0 0.3562894
v  0.1581849 0.2338149 0.5901043
v  0.2608353 0 0.2608353
v  0.4320552 0.2338149 0.4320552
v  0.2676244 1.327803 0.07169238
v  0.2676244 1.327803 -0.07169238
v  0.195932 1.327803 -0.195932
v  0.5014393 1.000435 0.1344232
v  0.5014393 1.000435 -0.1344232
v  0.3670161 1.000435 -0.3670161
v  0.5953997 0.7106779 0.1595427
v  0.5953997 0.7106779 -0.1595427
v  0.4358571 0.7106779 -0.4358571
v  0.625 0.5241148 0.167418
v  0.625 0.5241148 -0.167418
v  0.4575821 0.5241148 -0.4575821
v  0.3562894 0 0.09545405
v  0.5901043 0.2338149 0.1581849
v  0.3562894 0 -0.09545405
v  0.5901043 0.2338149 -0.1581849
v  0.2608353 0 -0.2608353
v  0.4320552 0.2338149 -0.4320552
v  0.07169238 1.327803 -0.2676244
v  -0.07169238 1.327803 -0.2676244
v  0.1344232 1.000435 -0.5014393
v  -0.1344232 1.000435 -0.5014393
v  0.1595427 0.7106779 -0.5953997
v  -0.1595427 0.7106779 -0.5953997
v  0.167418 0.5241148 -0.625
v  -0.167418 0.5241148 -0.625
v  0.09545405 0 -0.3562894
v  0.1581849 0.2338149 -0.5901043
v  -0.09545405 0 -0.3562894
v  -0.1581849 0.2338149 -0.5901043
# 74 vertices

vn 0.0000 1.0000 0.0000
vn -0.4456 0.7765 -0.4456
vn -0.6087 0.7765 -0.1631
vn -0.6087 0.7765 0.1631
vn -0.4456 0.7765 0.4456
vn -0.6308 0.4518 -0.6308
vn -0.8617 0.4518 -0.2309
vn -0.8617 0.4518 0.2309
vn -0.6308 0.4518 0.6308
vn -0.6868 0.2379 -0.6868
vn -0.9382 0.2379 -0.2514
vn -0.9382 0.2379 0.2514
vn -0.6868 0.2379 0.6868
vn -0.7070 0.0190 -0.7070
vn -0.9658 0.0190 -0.2588
vn -0.9658 0.0190 0.2588
vn -0.7070 0.0190 0.7070
vn -0.6396 -0.4263 -0.6396
vn -0.3010 -0.9049 -0.3010
vn -0.4112 -0.9049 -0.1102
vn -0.8738 -0.4263 -0.2341
vn -0.4112 -0.9049 0.1102
vn -0.8738 -0.4263 0.2341
vn -0.3010 -0.9049 0.3010
vn -0.6396 -0.4263 0.6396
vn 0.0000 -1.0000 -0.0000
vn -0.1631 0.7765 0.6087
vn 0.1631 0.7765 0.6087
vn 0.4456 0.7765 0.4456
vn -0.2309 0.4518 0.8617
vn 0.2309 0.4518 0.8617
vn 0.6308 0.4518 0.6308
vn -0.2514 0.2379 0.9382
vn 0.2514 0.2379 0.9382
vn 0.6868 0.2379 0.6868
vn -0.2588 0.0190 0.9658
vn 0.2588 0.0190 0.9658
vn 0.7070 0.0190 0.7070
vn -0.1102 -0.9049 0.4112
vn -0.2341 -0.4263 0.8738
vn 0.1102 -0.9049 0.4112
vn 0.2341 -0.4263 0.8738
vn 0.3010 -0.9049 0.3010
vn 0.6396 -0.4263 0.6396
vn 0.6087 0.7765 0.1631
vn 0.6087 0.7765 -0.1631
vn 0.4456 0.7765 -0.4456
vn 0.8617 0.4518 0.2309
vn 0.8617 0.4518 -0.2309
vn 0.6308 0.4518 -0.6308
vn 0.9382 0.2379 0.2514
vn 0.9382 0.2379 -0.2514
vn 0.6868 0.2379 -0.6868
vn 0.9658 0.0190 0.2588
vn 0.9658 0.0190 -0.2588
vn 0.7070 0.0190 -0.7070
vn 0.4112 -0.9049 0.1102
vn 0.8738 -0.4263 0.2341
vn 0.4112 -0.9049 -0.1102
vn 0.8738 -0.4263 -0.2341
vn 0.3010 -0.9049 -0.3010
vn 0.6396 -0.4263 -0.6396
vn 0.1631 0.7765 -0.6087
vn -0.1631 0.7765 -0.6087
vn 0.2309 0.4518 -0.8617
vn -0.2309 0.4518 -0.8617
vn 0.2514 0.2379 -0.9382
vn -0.2514 0.2379 -0.9382
vn 0.2588 0.0190 -0.9658
vn -0.2588 0.0190 -0.9658
vn 0.1102 -0.9049 -0.4112
vn 0.2341 -0.4263 -0.8738
vn -0.1102 -0.9049 -0.4112
vn -0.2341 -0.4263 -0.8738
# 74 vertex normals

vt 0.8484 0.6044 0.0000
vt 0.7894 0.5379 0.0000
vt 0.8275 0.5232 0.0000
vt 0.8688 0.5231 0.0000
vt 0.9070 0.5376 0.0000
vt 0.7342 0.4280 0.0000
vt 0.8092 0.4115 0.0000
vt 0.8865 0.4113 0.0000
vt 0.9616 0.4274 0.0000
vt 0.7062 0.3372 0.0000
vt 0.8016 0.3268 0.0000
vt 0.8956 0.3265 0.0000
vt 0.9847 0.3306 0.0000
vt 0.7073 0.2723 0.0000
vt 0.8008 0.2767 0.0000
vt 0.8943 0.2764 0.0000
vt 0.9877 0.2716 0.0000
vt 0.7173 0.1818 0.0000
vt 0.7689 0.0886 0.0000
vt 0.8193 0.1093 0.0000
vt 0.8037 0.1991 0.0000
vt 0.8747 0.1091 0.0000
vt 0.8909 0.1989 0.0000
vt 0.9251 0.0881 0.0000
vt 0.9772 0.1811 0.0000
vt 0.8467 0.0085 0.0000
vt 0.1552 0.6044 0.0000
vt 0.0963 0.5379 0.0000
vt 0.1344 0.5232 0.0000
vt 0.1756 0.5231 0.0000
vt 0.2138 0.5376 0.0000
vt 0.0410 0.4280 0.0000
vt 0.1160 0.4115 0.0000
vt 0.1933 0.4113 0.0000
vt 0.2684 0.4274 0.0000
vt 0.0130 0.3372 0.0000
vt 0.1085 0.3268 0.0000
vt 0.2024 0.3265 0.0000
vt 0.2915 0.3306 0.0000
vt 0.0141 0.2723 0.0000
vt 0.1076 0.2767 0.0000
vt 0.2011 0.2764 0.0000
vt 0.2946 0.2716 0.0000
vt 0.0241 0.1818 0.0000
vt 0.0757 0.0886 0.0000
vt 0.1261 0.1093 0.0000
vt 0.1106 0.1991 0.0000
vt 0.1816 0.1091 0.0000
vt 0.1977 0.1989 0.0000
vt 0.2319 0.0881 0.0000
vt 0.2840 0.1811 0.0000
vt 0.1536 0.0085 0.0000
vt 0.3496 0.9853 0.0000
vt 0.2907 0.9189 0.0000
vt 0.3288 0.9042 0.0000
vt 0.3700 0.9041 0.0000
vt 0.4082 0.9186 0.0000
vt 0.2354 0.8090 0.0000
vt 0.3104 0.7925 0.0000
vt 0.3878 0.7923 0.0000
vt 0.4628 0.8084 0.0000
vt 0.2074 0.7181 0.0000
vt 0.3029 0.7077 0.0000
vt 0.3968 0.7074 0.0000
vt 0.4860 0.7116 0.0000
vt 0.2085 0.6533 0.0000
vt 0.3020 0.6576 0.0000
vt 0.3955 0.6574 0.0000
vt 0.4890 0.6525 0.0000
vt 0.2185 0.5628 0.0000
vt 0.2701 0.4695 0.0000
vt 0.3206 0.4902 0.0000
vt 0.3050 0.5800 0.0000
vt 0.3760 0.4901 0.0000
vt 0.3921 0.5798 0.0000
vt 0.4263 0.4691 0.0000
vt 0.4785 0.5620 0.0000
vt 0.3480 0.3894 0.0000
vt 0.5483 0.6044 0.0000
vt 0.4893 0.5379 0.0000
vt 0.5274 0.5232 0.0000
vt 0.5687 0.5231 0.0000
vt 0.6069 0.5376 0.0000
vt 0.4341 0.4280 0.0000
vt 0.5091 0.4115 0.0000
vt 0.5864 0.4113 0.0000
vt 0.6615 0.4274 0.0000
vt 0.4061 0.3372 0.0000
vt 0.5015 0.3268 0.0000
vt 0.5955 0.3265 0.0000
vt 0.6846 0.3306 0.0000
vt 0.4072 0.2723 0.0000
vt 0.5007 0.2767 0.0000
vt 0.5942 0.2764 0.0000
vt 0.6876 0.2716 0.0000
vt 0.4172 0.1818 0.0000
vt 0.4688 0.0886 0.0000
vt 0.5192 0.1093 0.0000
vt 0.5036 0.1991 0.0000
vt 0.5747 0.1091 0.0000
vt 0.5908 0.1989 0.0000
vt 0.6250 0.0881 0.0000
vt 0.6771 0.1811 0.0000
vt 0.5466 0.0085 0.0000
# 104 texture coords

o Sphere001
g Sphere001
s 1
f 1/1/1 2/2/2 3/3/3 
f 1/1/1 3/3/3 4/4/4 
f 1/1/1 4/4/4 5/5/5 
f 2/2/2 6/6/6 7/7/7 3/3/3 
f 3/3/3 7/7/7 8/8/8 4/4/4 
f 4/4/4 8/8/8 9/9/9 5/5/5 
f 6/6/6 10/10/10 11/11/11 7/7/7 
f 7/7/7 11/11/11 12/12/12 8/8/8 
f 8/8/8 12/12/12 13/13/13 9/9/9 
f 10/10/10 14/14/14 15/15/15 11/11/11 
f 11/11/11 15/15/15 16/16/16 12/12/12 
f 12/12/12 16/16/16 17/17/17 13/13/13 
f 18/18/18 19/19/19 20/20/20 21/21/21 
f 21/21/21 20/20/20 22/22/22 23/23/23 
f 23/23/23 22/22/22 24/24/24 25/25/25 
f 26/26/26 20/20/20 19/19/19 
f 26/26/26 22/22/22 20/20/20 
f 26/26/26 24/24/24 22/22/22 
f 1/27/1 5/28/5 27/29/27 
f 1/27/1 27/29/27 28/30/28 
f 1/27/1 28/30/28 29/31/29 
f 5/28/5 9/32/9 30/33/30 27/29/27 
f 27/29/27 30/33/30 31/34/31 28/30/28 
f 28/30/28 31/34/31 32/35/32 29/31/29 
f 9/32/9 13/36/13 33/37/33 30/33/30 
f 30/33/30 33/37/33 34/38/34 31/34/31 
f 31/34/31 34/38/34 35/39/35 32/35/32 
f 13/36/13 17/40/17 36/41/36 33/37/33 
f 33/37/33 36/41/36 37/42/37 34/38/34 
f 34/38/34 37/42/37 38/43/38 35/39/35 
f 25/44/25 24/45/24 39/46/39 40/47/40 
f 40/47/40 39/46/39 41/48/41 42/49/42 
f 42/49/42 41/48/41 43/50/43 44/51/44 
f 26/52/26 39/46/39 24/45/24 
f 26/52/26 41/48/41 39/46/39 
f 26/52/26 43/50/43 41/48/41 
f 1/53/1 29/54/29 45/55/45 
f 1/53/1 45/55/45 46/56/46 
f 1/53/1 46/56/46 47/57/47 
f 29/54/29 32/58/32 48/59/48 45/55/45 
f 45/55/45 48/59/48 49/60/49 46/56/46 
f 46/56/46 49/60/49 50/61/50 47/57/47 
f 32/58/32 35/62/35 51/63/51 48/59/48 
f 48/59/48 51/63/51 52/64/52 49/60/49 
f 49/60/49 52/64/52 53/65/53 50/61/50 
f 35/62/35 38/66/38 54/67/54 51/63/51 
f 51/63/51 54/67/54 55/68/55 52/64/52 
f 52/64/52 55/68/55 56/69/56 53/65/53 
f 44/70/44 43/71/43 57/72/57 58/73/58 
f 58/73/58 57/72/57 59/74/59 60/75/60 
f 60/75/60 59/74/59 61/76/61 62/77/62 
f 26/78/26 57/72/57 43/71/43 
f 26/78/26 59/74/59 57/72/57 
f 26/78/26 61/76/61 59/74/59 
f 1/79/1 47/80/47 63/81/63 
f 1/79/1 63/81/63 64/82/64 
f 1/79/1 64/82/64 2/83/2 
f 47/80/47 50/84/50 65/85/65 63/81/63 
f 63/81/63 65/85/65 66/86/66 64/82/64 
f 64/82/64 66/86/66 6/87/6 2/83/2 
f 50/84/50 53/88/53 67/89/67 65/85/65 
f 65/85/65 67/89/67 68/90/68 66/86/66 
f 66/86/66 68/90/68 10/91/10 6/87/6 
f 53/88/53 56/92/56 69/93/69 67/89/67 
f 67/89/67 69/93/69 70/94/70 68/90/68 
f 68/90/68 70/94/70 14/95/14 10/91/10 
f 62/96/62 61/97/61 71/98/71 72/99/72 
f 72/99/72 71/98/71 73/100/73 74/101/74 
f 74/101/74 73/100/73 19/102/19 18/103/18 
f 26/104/26 71/98/71 61/97/61 
f 26/104/26 73/100/73 71/98/71 
f 26/104/26 19/102/19 73/100/73 
f 14/14/14 18/18/18 21/21/21 15/15/15 
f 15/15/15 21/21/21 23/23/23 16/16/16 
f 16/16/16 23/23/23 25/25/25 17/17/17 
f 17/40/17 25/44/25 40/47/40 36/41/36 
f 36/41/36 40/47/40 42/49/42 37/42/37 
f 37/42/37 42/49/42 44/51/44 38/43/38 
f 38/66/38 44/70/44 58/73/58 54/67/54 
f 54/67/54 58/73/58 60/75/60 55/68/55 
f 55/68/55 60/75/60 62/77/62 56/69/56 
f 56/92/56 62/96/62 72/99/72 69/93/69 
f 69/93/69 72/99/72 74/101/74 70/94/70 
f 70/94/70 74/101/74 18/103/18 14/95/14 
# 60 polygons - 24 triangles

