# Blender v2.78 (sub 0) OBJ File: 'yokohama (1).blend'
# www.blender.org
mtllib shop.mtl
o House_Cube.002
v -0.927958 -0.910958 1.075760
v -0.952000 -0.935000 1.051719
v 0.927958 0.242628 -1.075760
v 0.952000 0.255000 -1.051719
v -0.927958 -0.910958 -1.075760
v -0.952000 -0.935000 -1.051719
v 0.927958 0.242628 1.075760
v 0.952000 0.255000 1.051719
v 0.927958 -0.910958 1.075760
v 0.952000 -0.935000 1.051719
v -0.927958 0.242628 -1.075760
v -0.952000 0.255000 -1.051719
v 0.927958 -0.910958 -1.075760
v 0.952000 -0.935000 -1.051719
v -0.927958 0.242628 1.075760
v -0.952000 0.255000 1.051719
v 0.000000 0.935000 1.051719
v 0.000000 0.905455 1.075760
v 0.000000 0.935000 -1.051719
v -0.000000 0.905455 -1.075760
v -0.952000 0.255000 -1.051719
v -0.952000 0.255000 -1.051719
v -0.952000 0.255000 -1.051719
v -0.927958 0.242628 -1.075760
v -0.927958 0.242628 -1.075760
v -0.927958 -0.910958 -1.075760
v -0.927958 -0.910958 -1.075760
v -0.952000 -0.935000 -1.051719
v -0.952000 -0.935000 -1.051719
v -0.952000 -0.935000 -1.051719
v 0.952000 -0.935000 -1.051719
v 0.952000 -0.935000 -1.051719
v 0.952000 -0.935000 -1.051719
v 0.927958 -0.910958 -1.075760
v 0.927958 -0.910958 -1.075760
v 0.927958 0.242628 -1.075760
v 0.927958 0.242628 -1.075760
v 0.952000 0.255000 -1.051719
v 0.952000 0.255000 -1.051719
v 0.952000 0.255000 -1.051719
v -0.952000 -0.935000 1.051719
v -0.952000 -0.935000 1.051719
v -0.952000 -0.935000 1.051719
v -0.927958 -0.910958 1.075760
v -0.927958 -0.910958 1.075760
v -0.927958 0.242628 1.075760
v -0.927958 0.242628 1.075760
v -0.952000 0.255000 1.051719
v -0.952000 0.255000 1.051719
v -0.952000 0.255000 1.051719
v 0.000000 0.935000 1.051719
v 0.000000 0.935000 1.051719
v 0.000000 0.935000 1.051719
v 0.000000 0.905455 1.075760
v 0.000000 0.905455 1.075760
v 0.927958 0.242628 1.075760
v 0.927958 0.242628 1.075760
v 0.952000 0.255000 1.051719
v 0.952000 0.255000 1.051719
v 0.952000 0.255000 1.051719
v 0.000000 0.935000 -1.051719
v 0.000000 0.935000 -1.051719
v 0.000000 0.935000 -1.051719
v -0.000000 0.905455 -1.075760
v -0.000000 0.905455 -1.075760
v 0.927958 -0.910958 1.075760
v 0.927958 -0.910958 1.075760
v 0.952000 -0.935000 1.051719
v 0.952000 -0.935000 1.051719
v 0.952000 -0.935000 1.051719
vt 0.6709 0.0000
vt 0.9958 0.0000
vt 0.9958 0.0000
vt 1.0000 0.0055
vt 1.0000 0.4896
vt 1.0000 0.0055
vt 1.0000 0.0055
vt 0.8333 0.4896
vt 1.0000 0.4896
vt 0.8333 0.0055
vt 0.6667 0.4896
vt 0.8333 0.4896
vt 0.6667 0.4896
vt 0.6667 0.0055
vt 0.6667 0.4896
vt 0.9958 0.4951
vt 0.6709 0.4951
vt 0.6709 0.4951
vt 0.9958 0.4951
vt 1.0000 0.4896
vt 0.9958 0.4951
vt 0.6709 0.4951
vt 0.6667 0.4896
vt 0.6667 0.4896
vt 0.9958 0.0000
vt 1.0000 0.0055
vt 1.0000 0.0055
vt 0.8333 0.0000
vt 0.6667 0.0055
vt 0.8333 0.0055
vt 0.8333 0.4951
vt 1.0000 0.4896
vt 0.8333 0.4896
vt 0.6709 0.0000
vt 0.6667 0.0055
vt 0.6709 0.0000
vt 0.6667 0.4896
vt 0.9958 0.4951
vt 0.6709 0.4951
vt 0.8333 0.0000
vt 1.0000 0.0055
vt 0.9958 0.0000
vt 0.8333 0.4951
vt 0.6667 0.4896
vt 0.6709 0.4951
vt 1.0000 0.0055
vt 0.6709 0.0000
vt 0.9958 0.0000
vt 0.6667 0.4896
vt 1.0000 0.0055
vt 1.0000 0.4896
vt 0.6709 0.0000
vt 0.8333 0.0000
vt 1.0000 0.4896
vt 0.8333 0.0055
vt 0.6667 0.0055
vt 0.6667 0.0055
vt 0.9958 0.4951
vt 0.8333 0.4951
vt 1.0000 0.4896
vt 0.6709 0.4951
vt 0.9958 0.0000
vt 0.6709 0.0000
vt 0.9958 0.4951
vt 0.6667 0.0055
vt 1.0000 0.4896
vt 0.8333 0.0055
vt 0.8333 0.4896
vt 0.6667 0.0055
vt 0.6667 0.0055
vn 0.0000 0.0000 1.0000
vn -1.0000 0.0000 0.0000
vn -0.5812 0.8137 0.0000
vn 0.5812 0.8137 0.0000
vn 1.0000 0.0000 0.0000
vn 0.0000 0.0000 -1.0000
vn -0.7071 0.0000 -0.7071
vn 0.7071 0.0000 -0.7071
vn -0.7071 0.0000 0.7071
vn 0.4110 0.5754 0.7071
vn -0.4110 0.5754 -0.7071
vn 0.7071 0.0000 0.7071
vn 0.0000 -0.7071 -0.7071
vn -0.4110 0.5754 0.7071
vn 0.4110 0.5754 -0.7071
vn 0.0000 -0.7071 0.7071
vn 0.0000 -1.0000 0.0000
usemtl None
s 1
f 56/1/1 46/2/1 45/3/1
f 49/4/2 29/5/2 42/6/2
f 50/7/3 62/8/3 23/9/3
f 52/10/4 40/11/4 63/12/4
f 39/13/5 69/14/5 32/15/5
f 25/16/6 36/17/6 35/18/6
f 27/19/7 21/20/7 24/21/7
f 34/22/8 38/23/8 31/24/8
f 44/25/9 48/26/9 41/27/9
f 54/28/10 58/29/10 51/30/10
f 64/31/11 12/32/11 61/33/11
f 67/34/12 8/35/12 7/36/12
f 33/37/13 5/38/13 13/39/13
f 18/40/14 16/41/14 15/42/14
f 20/43/15 4/44/15 3/45/15
f 43/46/16 9/47/16 1/48/16
f 14/49/17 2/50/17 6/51/17
f 45/3/1 66/52/1 56/1/1
f 56/1/1 55/53/1 46/2/1
f 49/4/2 22/54/2 29/5/2
f 50/7/3 53/55/3 62/8/3
f 52/10/4 59/56/4 40/11/4
f 39/13/5 60/57/5 69/14/5
f 35/18/6 26/58/6 25/16/6
f 25/16/6 65/59/6 36/17/6
f 27/19/7 28/60/7 21/20/7
f 34/22/8 37/61/8 38/23/8
f 44/25/9 47/62/9 48/26/9
f 54/28/10 57/63/10 58/29/10
f 64/31/11 11/64/11 12/32/11
f 67/34/12 68/65/12 8/35/12
f 33/37/13 30/66/13 5/38/13
f 18/40/14 17/67/14 16/41/14
f 20/43/15 19/68/15 4/44/15
f 43/46/16 70/69/16 9/47/16
f 14/49/17 10/70/17 2/50/17
